<svg width="152" height="46" fill="none" xmlns="http://www.w3.org/2000/svg"><path fill-rule="evenodd" clip-rule="evenodd" d="M38.398 25.35c.16-2.198-.71-4.648-2.536-6.203a7.005 7.005 0 00-1.846-1.14 6.321 6.321 0 00-2.208-.309c-.23.336-.335-.238.188.7 1.268-.3 1.54.294 2.591 1.366l.383.322s.105.077.098.042c-.007-.035.063.02.097.035 1.533 3.06.398 2.135 1.373 3.892-.55.322-.216.105-.355.875-.293 1.709.006.826-1.018 2.206-.585.784-.822 1.176-1.88 1.652-1.06.483-1.136.413-2.083.4h-.641c-1.909-.127-1.56-1.121-2.146-1.898-.731-.973-.745-.077-1.505-2.107-.877-2.325.258-.365-.438-2.29-1.129.602-.328.014-.53.931-.09.4.21.077-.362.798l.752 2.066a3.552 3.552 0 01-.432-.434 1.109 1.109 0 00-.048-.14l.64 1.428c.05.084.105.168.154.245.097-.098-.21-.077.195.007l.884 1.106 2.606 1.1c1.163.384 1.846.63 3.441.44a5.54 5.54 0 00.836-.3 6.47 6.47 0 003.79-4.81M33.66 44.61a20.923 20.923 0 004.597-2.408l-.543.26c-.049.02-.105.041-.146.062l-.579.196c-.041.014-.097.021-.139.035l-7.091.707a.849.849 0 01-.133-.014c-.146-.014-.258-.035-.41-.049l-5.964-1.75c-.063.035-.09-.035-.14-.042.809 1.365 3.115 2.142 4.396 2.387.035 0 .084.014.119.021a.761.761 0 01.118.035c.035.014.077.035.119.05l1.588.483c.94.14 1.602.09 2.153.385v-.014c.223-.519-.565-.239 2.062-.343h-.007zm-11.906 1.016a26.63 26.63 0 001.693.245c-.864-.371-1.776-.791-2.215-.756.167.189.341.357.522.51zM28.917 6.16l-.627.757c-.383-.322-.286-.182-1.073-.056l-2.222.658c-.07.02-.293.056-.335.063l-.195.035c-.585.14-1.114.595-1.762.896l-.669.294a1.377 1.377 0 00-.14.077c-3.064 1.666-5.036 3.69-6.93 6.84-.105.175-.384.644-.46.777l-.871 1.673s-.007.077-.014.098l-1.1 3.193v.217l-.44 4.075v.119l-.014 1.218c0 .238 0 .23.042.546.105.805.565 2.282.446 2.926-.153.812.174-.02-.293.77-.661-.945-1.037-2.24-1.177-3.514a.87.87 0 00-.014-.133l-.153-2.017c-.146-.798 0-1.63.042-2.478v-.133l.822-4.705a17.247 17.247 0 011.63-3.612l2.208-3.34c1.728-2.324 3.121-3.143 5.204-4.725.99-.757 1.219-1.044 2.055-.7-.341.286-1.282.903-1.296.91-3.19 1.855-5.162 4.431-7.182 7.253-.53.91-.76 1.379-.912 1.89.041-.028 3.044-3.668 4.423-4.992.982-1 2.278-1.771 2.264-1.827l1.902-1.17c1.944-.916 1.163-.755 3.002-1.315l3.26-.82c.495-.07 0-.707.579.245v.007zm-9.098 12.68l.02.07c.112.363 0 .588-.271 1.218l-.613 2.142c-.125.826-.265 1.253.042 1.813.383-.637.07-.035.279-.749.013-.049.02-.105.034-.147l1.282-3.325c.592-1.1 3.825-5.055 4.8-4.838l1.811-.945.14-.05c.041-.013.097-.027.139-.041 2.138-.644 2.96-.756 4.41-.658.201.014.494.035.543.035l1.407.217c3.4.616 7.58 3.815 8.262 7.015-.899-.791-1.066-1.345-1.728-2.08-.857-.938-3.413-2.527-4.625-2.912l-3.302-.54c-.042 0-.098-.006-.14-.006-.041 0-.097 0-.14-.007l-2.166.238c-.306.07-.759.224-1.135.357-2.73 1.008-4.368 2.492-5.587 5.279l-.634 3.962.502-.637c.285.784.153.903-.021 1.89-.049.302-.3.407.111 1.786l-.439-.147c-.048-.021-.09-.042-.139-.063-.327-.147-.09-.14-.543-.28l.829 1.967a6 6 0 001.156 1.876c.536.588 1.268 1.17 1.888 1.667.3.238.578.51.926.686.404.21.272.042.272.042s.028-.035.035-.035l1.191.658c-.132-.714-3.448-3.704-4.026-4.509.055-.049.048.014.055.007.084-.09-.16-.329.042-.924.335.4.69.805 1.031 1.19l.153.28s-.041.056-.041.063a.369.369 0 01-.063.077c-.028.035-.056.056-.07.084.55.567 1.129 1.085 1.707 1.625 1.052.98 3.267 1.82 4.779 1.645l.634-.028c-.592-.455-.725-.175-1.526-.364l-.794-.26c-.418-.146-1.303-.293-1.588-1.098l4.075.126c.042-.007.097-.021.14-.035 1.281-.322 1.309-.827 2.082-.427l-1.602.86c-.049.022-.098.029-.188.099s-.133.063-.188.105c.717.44.989.294 1.762.042 1.707-.56 3.365-1.68 4.375-3.452l-.028-.133c1.122-1.526 1.303-2.842 1.33-4.474.022-.819-.835-3.2-.807-3.423.083-.602-1.003-1.106-1.129-1.764l-1.532-2.164c1.901.518 3.44 3.466 4.395 4.565-.264.07-.306-.035-.446-.021l.815 1.512c.077.413.077.483.112.791l.174 1.618v.147c-.02.623.035 1.169-.53 1.82.063-.203-.104-.623.175-.014.02.042.035.448.035.49-.063.469-.216.77-.398 1.225l-.536 1.141c-1.61 2.948-4.514 4.621-6.36 5.14a.896.896 0 01-.146.034 1.11 1.11 0 01-.147.035l-3.33.371s-.083-.014-.11-.014l-1.478-.203c-.055 0-.536-.02-.55-.028-.571-.105-.355-.07-.766-.364.118.777 1.497.945 2.215 1.127l2.104.287c.355.035.188.021.404.028l.961-.014c.62-.028-.014.021.383-.028l.397-.077c3.024-.574 5.406-2.023 7.684-4.872l1.073-1.793c.02-.042.042-.098.063-.147l1.198-5.727v-.14l-.23-1.33c-.07-1.12-.14-1.834-.648-2.87l-.272-.651.878.42c.02.049.077.203.098.259l1.1 3.115c.098.42.119.651.153 1.036.112 1.247.091 3.312-.146 4.509-.007.042-.02.098-.028.14-.07.343 0 .07-.125.567-.718 2.85-2.18 4.852-4.633 7.085l-3.81 2.255c-2.473.945-2.808.805-5.141 1l-2.23-.14c-.69-.118-3.065-.804-3.545-.566l1.985.924c.307.119.474.23.76.406.348-.196 2.598.448 3.023.49 1.03.105 2.278-.084 3.365-.231l1.156-.14c.383-.084 1.024-.315 1.477-.483 1.03-.378 2.013-.616 3.086-1.54l.18.175c.927-.91 1.75-1.604 2.55-2.367m0 0c3.024-6.238 3.268-16.228 1.505-23.867-1.581-1.365-3.72-3.164-6.04-3.801-1.713-.47-3.246-1.127-5.12-1.197l-.926-.056c-.557.02.244-.014-.279.028l-6.2 1.043c-.042.02-.097.042-.146.063-.042.014-.098.042-.146.056-.042.014-.098.035-.147.049-.041.014-.097.028-.146.042l-3.392 1.89c-2.355 1.68-2.836 2.486-4.55 4.698-.996 1.288-1.65 3.48-1.678 3.543l-.195.454c-.021.043-.042.106-.063.148-.209.574-.25.945-.049 1.463.46-.672.307-.497.53-.994l2.208-3.844c1.595-1.911 3.706-3.879 5.663-4.845.147-.07.307-.14.425-.196l3.616-1.183c.648-.175-.042-.182.703-.161.028 0 .091.007.126.007l1.128-.112c.042 0 .098-.014.14-.021l5.322.56c.042.014.09.021.132.035.76.154 1.86.483 2 .637 2.988 1.933 4.068 2.948 6.464 5.727-.188-.014-.18 0-.467-.126-.69-.301-2.786-2.92-3.33-2.576l-1.407-.777c-.564-.274-.592-.309-1.086-.512-1.268-.833-1.665-.763-2.92-1.05l-4.409-.154a.94.94 0 00-.14.014l-1.95.4c-1.177.363.474-.155-.292.097-.042.014-.098.035-.14.042-.034.014-.09.028-.125.042l-3.49 1.667c-1.296.84-3.044 2.695-3.824 4.046-.384.658-.154.553-.9 1.17m-.542.35c1.177-2.367 1.602-3.004 4.04-5.286a6.484 6.484 0 011.296-.96 51.83 51.83 0 011.644-.924l.731-.343 1.372-.406c.223-.077.314.035 1.129-.665l-1.26-.098s-.043.028-.05.035l-.348.028c-.223.014-.125-.014-.432.035-.244.042-.334.077-.55.14l-.732.238c-2.41.89-2.04.952-3.831 2.1l-.16.085c-.537.252-2.696 2.583-3.295 3.185.028.042.049.05.062.042.014-.007.028.014.028.021l-.362.595c-.703.952-1.135 1.856-1.553 2.85-.544 1.288-.878 2.793-1.136 4.067l-.077 1.947c-.076 1.96.133 2.17.398 3.605l2.04 5.258-1.441-1.358c-.147-.182-.76-1.463-.899-1.8-.16-.378-.3-.77-.404-1.043l-1.024-5.979c0-.042-.007-.098-.007-.14-.063-1.253.223-2.107.439-3.451l.076-.427s.021-.056.028-.063c.328-.938.126-.847.565-1.415l-.056-.035s-.035-.049-.042-.07v-.14c.084-.567 1.198-2.604 1.602-3.213l.286-.448c1.748-2.758 4.375-4.97 7.154-6.371l1.177-.54c.816-.384 2.466-1.021 3.386-1.042.425-.007.564-.021 1.073-.33-.174-.672-.564-.44-1.338-.342l.279-.302c.64-.588.042-.392.662-.427h.14l1.9-.035c.036 0 .098.007.133.014l1.192.14.132.021 7.635 2.465c1.4.994.703.686 1.1.553a59.411 59.411 0 012.613 2.38c-1.108-4.165-2.842-7.477-5.072-8.842C34.448-.596 27.196-.442 21.456.945m0 0C10.819 3.515-2.891 10.592.536 25.65c1.29 5.671 6.765 12.995 9.056 14.353 1.54.91 1.832.847 3.212 1.862 2.034 1.491 4.396 2.611 6.917 3.305a19.766 19.766 0 01-2.584-2.038c-1.777-1.659-2.85-3.052-4.222-4.922-.034-.041-2.689-4.508-1.77-4.991.941 1.022 2.195 4.606 6.173 8.296 1.142 1.057 3.051 2.156 4.277 2.85l2.306 1.022c.446.168 1.24.322 1.526.609 2.096.035 4.207-.21 6.262-.763a1.113 1.113 0 01-.09-.147c-.558.308.3-.014-.363.09-.034 0-.097.015-.139.022l-.662-.056c-.041 0-.09-.014-.132-.021l-1.686-.245h-.09l-1.986-.568c-.111-.027-.494-.119-.648-.168l-1.901-.854c-.251-.14-.37-.245-.641-.364l-1.902-1.302c-.585-.441-3.246-2.926-4.472-4.376-.983-1.078-1.79-2.331-2.244-3.62l-1.024-3.507c.495.49.3.68.614 1.1.85 1.134 1.35 2.61 2.368 4.039l-.098.07c1.951 2.17 3.88 4.439 6.5 5.692l4.012 1.47 3.86.54c.244.006.39.048.683.048l.46-.028c.954-.175.473-.245 1.406-.133.725.084.864-.09 1.54-.259a.921.921 0 00.132-.035l.133-.028 1.56-.343c.418-.02.307.035.55.224a1.09 1.09 0 01.098-.16c.028-.036.07-.113.104-.155l.955-.693c.53-.252 1.114-.567 1.72-.931.203-.182.398-.371.593-.567.452-.448.87-.96 1.26-1.52-.494.442-.926.778-1.253.883-.028.007-.084.014-.112.02-.697.183-.585.267-1.741.82l-7.078 1.449c-.035 0-.09 0-.133-.007-.034 0-.09 0-.132-.007-1.205-.091-2.529-.133-3.532-.637l-4.033-1.883c-.697-.645-.962-.596-1.658-1.142-1.651-1.295-3.295-3.311-4.117-5.243l-.167-.4L18 31.77c-.467-1.253-.655-1.533-.906-2.989l-.042-1.057c.007-.47-.042-.315 0-.742.307.3.14.112.272.469.355.938.042 1.162.731 2.464.23.441.05.133-.014.336.683.938.725 1.505 1.651 2.668l-.41-.343c1.616 1.988 2.807 3.094 4.73 4.746.257-.056-.516-.462.543.14l2.083.973c1.142.414 2.25.799 3.441.869l5.977-.784c2.403-.84 3.462-1.709 5.385-3.774l.773-1.03c.028-.048.112-.188.077-.174-.028.014.056-.12.07-.175-1.638 1.393-2.522 2.15-4.048 2.975l-.975.532c-1.916.896-3.337.784-4.897.91l-.181.028s-.077.021-.098.021l-2.536-.322c-2.912-.756-4.451-1.652-6.492-3.83-1.066-1.14-.69-.902-1.003-1.616-.265-.617-1.24-1.604-1.554-3.732l-.209-1.064c-.397-1.757.404-1.281-.327-2.15-.383.567-.084.064-.244.582l.195 2.52 2.759 5.804c.32.609 1.205 1.253 1.456 1.68l.223.693c-1.895-.7-3.38-2.947-4.64-4.572l-1.442-3.78-.341-4.082v-.14l.64-3.087c.223-.686.196-.35.328-1.022.084-.266.125-.386.244-.49" fill="#FFDE00"/><path d="M62.089 1.046c1.792 0 3.309.67 4.55 2.012l-1.551 1.44c-.816-.798-1.816-1.197-3-1.197-1.068 0-1.964.37-2.688 1.11-.713.74-1.069 1.683-1.069 2.827 0 1.157.356 2.105 1.069 2.845.724.729 1.62 1.093 2.689 1.093 1.206 0 2.206-.4 2.999-1.197l1.55 1.44c-1.24 1.341-2.757 2.012-4.55 2.012-1.7 0-3.148-.601-4.343-1.804-1.195-1.214-1.792-2.677-1.792-4.389 0-1.711.597-3.168 1.792-4.37 1.195-1.215 2.643-1.822 4.344-1.822zm9.058 3.469c1.23 0 2.275.44 3.137 1.318.861.868 1.292 1.914 1.292 3.14 0 1.226-.43 2.272-1.292 3.14-.862.867-1.908 1.3-3.137 1.3-1.23 0-2.275-.433-3.137-1.3-.85-.868-1.276-1.914-1.276-3.14 0-1.237.431-2.29 1.293-3.157.862-.867 1.902-1.3 3.12-1.3zm1.551 2.793c-.437-.44-.954-.66-1.551-.66-.598 0-1.12.22-1.569.66-.436.428-.655.983-.655 1.665s.219 1.237.655 1.665c.437.428.96.642 1.569.642.597 0 1.114-.214 1.551-.642.448-.428.672-.983.672-1.665s-.224-1.237-.672-1.665zm7.092.572l-2.361 5.43h-2.327l3.981-8.674h1.413l3.982 8.673h-2.31L79.79 7.88zm13.325 5.43h-2.188V9.978h-3.758v3.33H84.98V4.636h2.19v3.21h3.757v-3.21h2.188v8.673zm5.245-8.795c1.828 0 3.092.78 3.793 2.342.172.381.27.844.293 1.387.023.532-.029.978-.155 1.336h-6.016c0 .567.201 1.012.604 1.336.413.323.925.485 1.534.485.953 0 1.821-.202 2.602-.607l1.155 1.266c-1.207.902-2.459 1.354-3.757 1.354-1.299 0-2.356-.417-3.172-1.25-.816-.844-1.224-1.907-1.224-3.191 0-1.272.397-2.33 1.19-3.174.793-.856 1.844-1.284 3.154-1.284zm0 2.012c-.562 0-1.033.168-1.412.503-.368.336-.563.723-.586 1.162h3.947c0-.254-.069-.485-.207-.693-.345-.648-.925-.972-1.741-.972zm13.16 6.783h-2.189v-2.776c-.552.59-1.322.885-2.31.885-1.298 0-2.263-.388-2.895-1.162-.621-.775-.931-1.828-.931-3.157V4.636h2.189v2.325c0 .81.155 1.4.465 1.77.31.37.816.554 1.517.554 1.31 0 1.965-.728 1.965-2.185V4.636h2.189v8.673zm9.552 0h-2.189V9.978h-3.758v3.33h-2.189V4.636h2.189v3.21h3.758v-3.21h2.189v8.673zm3.608-6.176h1.999c.713 0 1.322.099 1.827.295.506.197.879.457 1.12.78.242.325.414.648.517.972.104.324.156.67.156 1.04s-.052.718-.156 1.042a3.306 3.306 0 01-.517.971c-.241.324-.614.584-1.12.78-.505.197-1.114.295-1.827.295h-4.188V4.636h2.189v2.498zm8.635 6.175h-2.189V4.636h2.189v8.673zm-8.635-2.064h2.24c.793 0 1.19-.34 1.19-1.023 0-.682-.397-1.024-1.19-1.024h-2.24v2.047zm15.988-8.1c-.517.497-1.155.746-1.913.746-.759 0-1.402-.249-1.931-.746-.517-.51-.775-1.14-.775-1.891h1.516c0 .312.115.578.345.798.23.208.511.312.845.312.333 0 .614-.104.844-.312.241-.22.362-.486.362-.798h1.5c0 .752-.265 1.382-.793 1.89zm2.068 10.164h-2.189V8.192l-4.412 5.117h-1.413V4.636h2.188v5.118l4.413-5.118h1.413v8.673zm-84.129 7.236v6.54h-2.189V18.41h6.463v2.134h-4.274zm8.668-2.255c1.23 0 2.276.44 3.137 1.318.862.867 1.293 1.914 1.293 3.14 0 1.225-.43 2.272-1.293 3.14-.861.866-1.907 1.3-3.137 1.3-1.229 0-2.275-.433-3.136-1.3-.85-.868-1.276-1.915-1.276-3.14 0-1.238.431-2.29 1.293-3.157.862-.868 1.902-1.301 3.12-1.301zm1.552 2.792c-.437-.439-.954-.659-1.552-.659-.597 0-1.12.22-1.568.66-.436.427-.655.982-.655 1.665 0 .682.218 1.237.655 1.665.437.428.96.642 1.569.642.597 0 1.114-.214 1.55-.642.449-.428.673-.983.673-1.665 0-.683-.224-1.238-.672-1.666zm5.325-1.439c.713-.89 1.672-1.336 2.878-1.336 1.207 0 2.207.428 3 1.284.792.855 1.189 1.908 1.189 3.157 0 1.248-.397 2.307-1.19 3.174-.792.856-1.792 1.284-2.999 1.284-.93 0-1.689-.324-2.275-.972v4.042h-2.189V18.41h1.465l.121 1.232zm2.654.798c-.597 0-1.12.213-1.568.641-.437.428-.655.983-.655 1.666 0 .682.218 1.243.655 1.682.448.428.97.642 1.568.642.598 0 1.115-.214 1.552-.642.448-.44.672-1 .672-1.682 0-.683-.219-1.238-.655-1.666a2.162 2.162 0 00-1.569-.641zm9.224-2.151c1.23 0 2.276.44 3.138 1.318.861.867 1.292 1.914 1.292 3.14 0 1.225-.43 2.272-1.292 3.14-.862.866-1.908 1.3-3.137 1.3-1.23 0-2.275-.433-3.137-1.3-.85-.868-1.275-1.915-1.275-3.14 0-1.238.43-2.29 1.292-3.157.862-.868 1.902-1.301 3.12-1.301zm1.552 2.792c-.436-.439-.954-.659-1.551-.659-.598 0-1.12.22-1.569.66-.436.427-.654.982-.654 1.665 0 .682.218 1.237.654 1.665.437.428.96.642 1.569.642.597 0 1.114-.214 1.551-.642.448-.428.672-.983.672-1.665 0-.683-.224-1.238-.672-1.666zm12.839 7.615h-2.189v-1.613h-5.67v1.613h-2.189v-3.746h1.31l2.999-6.54h1.413l3 6.54h1.326v3.746zm-5.032-7.042l-1.465 3.296h2.93l-1.465-3.296zM58.366 42.9v-.864H58.2a3.97 3.97 0 01-1.159-.156c-.334-.104-.602-.236-.803-.395a2.138 2.138 0 01-.501-.57 2.386 2.386 0 01-.265-.633 3.151 3.151 0 010-1.258c.049-.208.137-.422.265-.643.133-.22.3-.41.502-.569.2-.16.468-.29.802-.395a3.971 3.971 0 011.16-.156h.164v-.735h.675v.735h.164c.432 0 .815.052 1.15.156.34.104.611.236.812.395a2 2 0 01.493.57c.133.22.222.434.264.642a2.771 2.771 0 010 1.258c-.042.202-.13.413-.264.634-.128.22-.292.41-.493.57-.2.158-.472.29-.812.394a3.874 3.874 0 01-1.15.156h-.164v.863h-.675zm0-1.507v-3.49h-.183c-.395 0-.736.053-1.022.157-.286.104-.502.248-.648.431a1.824 1.824 0 00-.32.551c-.06.19-.09.392-.09.607 0 .214.03.416.09.606.068.19.174.376.32.56.146.177.362.318.648.422.286.104.627.156 1.022.156h.183zm.675-3.49v3.49h.182c.396 0 .736-.052 1.022-.156.286-.104.502-.245.648-.422.146-.184.25-.37.31-.56.067-.19.1-.392.1-.606a1.81 1.81 0 00-.41-1.157c-.146-.184-.362-.328-.648-.432a2.992 2.992 0 00-1.022-.156h-.182zm7.239 4.537c-.378.38-.856.57-1.433.57-.578 0-1.059-.19-1.442-.57-.377-.38-.566-.857-.566-1.432 0-.582.189-1.063.566-1.442.383-.38.864-.57 1.442-.57.577 0 1.055.19 1.432.57.383.38.575.86.575 1.442 0 .575-.192 1.053-.575 1.432zm-.494-2.48a1.29 1.29 0 00-.94-.376c-.37 0-.687.129-.948.386-.256.251-.384.597-.384 1.038 0 .44.131.786.393 1.037.261.251.575.377.94.377s.678-.126.94-.377c.261-.25.392-.596.392-1.037 0-.447-.131-.796-.393-1.047zm2.076 2.94v-3.812h.657v1.562h1.788v-1.562h.657V42.9h-.657v-1.643h-1.788V42.9h-.657zm4.613-3.812h2.664v3.205h.566v1.617h-.602V42.9h-2.884v1.01h-.602v-1.617c.316-.006.55-.171.703-.496.103-.214.155-.55.155-1.01v-1.699zm2.007 3.205v-2.599h-1.35v1.433c0 .508-.152.897-.457 1.166h1.807zm7.011-2.929v.79a1.433 1.433 0 00-1.186-.57c-.371 0-.687.129-.949.386-.261.251-.392.597-.392 1.038 0 .44.13.786.392 1.037.262.251.575.377.94.377.487 0 .894-.2 1.223-.597v.79c-.36.263-.76.395-1.205.395-.59 0-1.076-.187-1.46-.56-.377-.38-.566-.858-.566-1.433 0-.582.192-1.062.575-1.442.384-.386.867-.578 1.451-.578.438 0 .83.122 1.177.367zm3.061 3.536v-1.497a6.109 6.109 0 01-.894.082c-.413 0-.72-.092-.921-.275-.213-.19-.32-.502-.32-.937v-1.185h.657v1.093c0 .208.028.358.082.45.085.166.277.248.575.248.268 0 .542-.027.821-.082v-1.709h.657V42.9h-.657zm4.797-3.27v-.542h.657V42.9h-.657v-.532c-.328.428-.76.643-1.296.643-.51 0-.946-.178-1.304-.533-.36-.355-.539-.851-.539-1.488 0-.624.177-1.11.53-1.46a1.797 1.797 0 011.313-.532c.548 0 .98.21 1.296.633zm-1.222-.046a1.19 1.19 0 00-.886.377c-.237.245-.355.587-.355 1.028 0 .423.109.769.328 1.038.225.263.53.395.913.395s.687-.138.912-.413c.231-.276.347-.613.347-1.01 0-.454-.128-.803-.384-1.047a1.23 1.23 0 00-.876-.368zm6.089-.22v.79a1.433 1.433 0 00-1.186-.57c-.371 0-.688.129-.95.386-.26.251-.392.597-.392 1.038 0 .44.131.786.393 1.037.261.251.575.377.94.377.486 0 .894-.2 1.222-.597v.79c-.359.263-.76.395-1.204.395-.59 0-1.077-.187-1.46-.56-.377-.38-.566-.858-.566-1.433 0-.582.192-1.062.575-1.442.383-.386.867-.578 1.45-.578.439 0 .831.122 1.178.367zm3.517.33H96.55V42.9h-.657v-3.205h-1.186v-.606h3.03v.606zm3.467-.606V42.9h-.657v-3.205h-1.35v1.718c0 .496-.098.863-.293 1.102-.219.27-.523.404-.912.404-.049 0-.116-.006-.2-.019v-.606c.06.013.109.019.145.019a.521.521 0 00.475-.248c.085-.135.127-.352.127-.652v-2.324h2.665zm1.242 0h.657v2.517l2.592-2.81v4.104h-.657v-2.543l-2.592 2.81v-4.078zm4.492 0h1.432c.347 0 .611.074.794.22a.874.874 0 01.328.717c0 .33-.136.585-.41.762.188.05.347.135.474.257a.984.984 0 01.301.735c0 .367-.13.655-.392.863-.225.172-.523.257-.894.257h-1.633v-3.81zm.657 1.552h.693a.716.716 0 00.42-.11.467.467 0 00.182-.395.438.438 0 00-.182-.367c-.092-.061-.268-.092-.529-.092h-.584v.964zm0 1.672h.812c.279 0 .477-.043.593-.129a.508.508 0 00.219-.422.526.526 0 00-.192-.432c-.115-.092-.313-.138-.593-.138h-.839v1.12zm6.466.128c-.377.38-.855.57-1.432.57-.578 0-1.059-.19-1.442-.57-.377-.38-.566-.857-.566-1.432 0-.582.189-1.063.566-1.442.383-.38.864-.57 1.442-.57.577 0 1.055.19 1.432.57.383.38.575.86.575 1.442 0 .575-.192 1.053-.575 1.432zm-.493-2.48a1.287 1.287 0 00-.939-.376c-.372 0-.688.129-.949.386-.256.251-.384.597-.384 1.038 0 .44.131.786.393 1.037.261.251.575.377.94.377.364 0 .678-.126.939-.377.262-.25.393-.596.393-1.037 0-.447-.131-.796-.393-1.047zm2.075 2.94v-3.812h2.245v.606h-1.588V42.9h-.657zm5.912-.46c-.377.38-.855.57-1.432.57-.578 0-1.059-.19-1.442-.57-.377-.38-.566-.857-.566-1.432 0-.582.189-1.063.566-1.442.383-.38.864-.57 1.442-.57.577 0 1.055.19 1.432.57.383.38.575.86.575 1.442 0 .575-.192 1.053-.575 1.432zm-.493-2.48a1.287 1.287 0 00-.939-.376c-.372 0-.688.129-.949.386-.256.251-.384.597-.384 1.038 0 .44.131.786.393 1.037.261.251.575.377.94.377s.678-.126.939-.377c.262-.25.393-.596.393-1.037 0-.447-.131-.796-.393-1.047zm4.479-.872h2.664v3.205h.566v1.617h-.602V42.9h-2.884v1.01h-.602v-1.617c.316-.006.551-.171.703-.496.103-.214.155-.55.155-1.01v-1.699zm2.007 3.205v-2.599h-1.35v1.433c0 .508-.152.897-.456 1.166h1.806zm4.727-.67l.547.303c-.128.245-.283.45-.465.615a1.817 1.817 0 01-1.26.469c-.51 0-.952-.166-1.323-.496-.365-.337-.547-.836-.547-1.497 0-.582.164-1.062.493-1.442.334-.386.781-.578 1.341-.578.633 0 1.11.232 1.433.697.255.368.374.845.355 1.433H129.9c.006.386.125.698.356.937.231.239.514.358.849.358.298 0 .556-.092.775-.276.171-.147.301-.321.393-.523zm-2.327-1.047h2.226a1.192 1.192 0 00-.392-.716 1.031 1.031 0 00-.721-.276c-.274 0-.517.095-.73.285-.207.184-.335.42-.383.707zm6.391-.882h-1.186V42.9h-.657v-3.205h-1.186v-.606h3.029v.606zm3.567-.33v.79a1.434 1.434 0 00-1.186-.57c-.371 0-.688.129-.949.386-.262.251-.393.597-.393 1.038 0 .44.131.786.393 1.037.261.251.575.377.94.377.486 0 .894-.2 1.222-.597v.79c-.359.263-.76.395-1.204.395-.59 0-1.077-.187-1.46-.56-.377-.38-.566-.858-.566-1.433 0-.582.192-1.062.575-1.442.383-.386.867-.578 1.451-.578.438 0 .83.122 1.177.367zm3.517.33h-1.186V42.9h-.657v-3.205h-1.186v-.606h3.029v.606zm.691-.606h1.432c.347 0 .612.074.794.22a.875.875 0 01.329.717c0 .33-.137.585-.411.762.188.05.347.135.474.257a.985.985 0 01.302.735c0 .367-.131.655-.393.863-.225.172-.523.257-.894.257h-1.633v-3.81zm.657 1.552h.693a.716.716 0 00.42-.11.467.467 0 00.182-.395.438.438 0 00-.182-.367c-.091-.061-.268-.092-.529-.092h-.584v.964zm0 1.672h.812c.279 0 .477-.043.593-.129a.508.508 0 00.219-.422.526.526 0 00-.192-.432c-.115-.092-.313-.138-.593-.138h-.839v1.12zm6.165-2.682v-.542h.657V42.9h-.657v-.532c-.328.428-.76.643-1.296.643-.511 0-.946-.178-1.305-.533-.358-.355-.538-.851-.538-1.488 0-.624.177-1.11.529-1.46a1.798 1.798 0 011.314-.532c.548 0 .98.21 1.296.633zm-1.223-.046a1.19 1.19 0 00-.885.377c-.237.245-.356.587-.356 1.028 0 .423.11.769.329 1.038.225.263.529.395.912.395.384 0 .688-.138.913-.413.231-.276.347-.613.347-1.01 0-.454-.128-.803-.384-1.047a1.23 1.23 0 00-.876-.368z" fill="#fff"/></svg>