<svg width="248" height="81" viewBox="0 0 248 81" fill="none" xmlns="http://www.w3.org/2000/svg">
<path d="M8.67243 53.7996H31V52.8835H31.9648V54.6761H0L24.7928 14.8305H1.96387V15.6871H1.06219V13.9559H33.5049L8.67243 53.7996ZM166.235 14.0947V16.0532H167.106V14.6249H180.121V53.8032H178.516V54.6743H188.409V53.8032H186.786V14.6249H199.964V16.0532H200.835V13.7539H166.235V14.0947ZM104.253 53.8032H89.9108V14.6249H91.3211V13.7539H81.8912V14.6249H83.2474V53.8032H81.8912V54.6743H105.086V52.5427H104.253V53.8032ZM248 34.2943C248 39.9209 246.099 44.6776 242.296 48.5644C238.493 52.4513 233.83 54.3953 228.307 54.3966C222.443 54.3966 217.513 52.4243 213.52 48.4797C209.526 44.5351 207.529 39.675 207.529 33.8994C207.529 28.0096 209.814 23.5949 213.66 19.8331C217.507 16.0712 222.06 13.7918 228.051 13.7918C233.701 13.7918 238.029 15.9071 241.852 19.8331C245.675 23.759 248 28.4821 248 34.2943ZM240.862 34.5793C240.862 27.6507 240.321 22.5544 237.136 18.6933C235.14 16.2696 231.295 14.7656 227.734 14.7656C224.335 14.7656 221.701 15.6931 219.831 17.5482C216.388 20.9566 214.667 26.5038 214.668 34.1897C214.668 40.2851 215.301 45.1723 217.703 48.541C220.105 51.9097 224.037 53.4426 228.37 53.4426C232.406 53.4426 235.62 52.3786 237.659 49.1992C239.91 45.67 240.862 40.4493 240.862 34.5793ZM71.9276 19.8385C75.7507 23.7644 78.0735 28.4821 78.0735 34.2943C78.0735 39.9209 76.1721 44.6776 72.3694 48.5644C68.5667 52.4513 63.9038 54.3953 58.3806 54.3966C52.5173 54.3966 47.588 52.4243 43.593 48.4797C39.5979 44.5351 37.6046 39.675 37.613 33.8994C37.613 28.0096 39.896 23.5949 43.7444 19.8331C47.5928 16.0712 52.1446 13.7918 58.1354 13.7918C63.7763 13.7972 68.1026 15.9125 71.9276 19.8385ZM70.9357 34.5793C70.9357 27.6507 70.3947 22.5544 67.2118 18.6933C65.2136 16.2696 61.376 14.7656 57.8108 14.7656C54.4108 14.7656 51.7767 15.6931 49.9084 17.5482C46.4675 20.9566 44.7471 26.5038 44.7471 34.1897C44.7471 40.2851 45.3801 45.1723 47.7804 48.541C50.1807 51.9097 54.1157 53.4426 58.4492 53.4426C62.4851 53.4426 65.6987 52.3786 67.7365 49.1992C69.9853 45.67 70.9357 40.4493 70.9357 34.5793Z" fill="url(#paint0_linear_71_393)"/>
<path d="M51.8813 75.8828H0V76.4887H51.8813V75.8828Z" fill="#F2DE90"/>
<path d="M245.888 75.8828H194.007V76.4887H245.888V75.8828Z" fill="#F2DE90"/>
<path d="M63.0566 73.5545C63.3331 73.825 63.4707 74.2302 63.4695 74.77V75.3471C63.4843 75.6793 63.4042 76.009 63.2387 76.2974C63.0709 76.5514 62.8132 76.7325 62.5173 76.8042C62.8191 76.8735 63.0825 77.0562 63.2531 77.3146C63.4186 77.609 63.4986 77.9437 63.484 78.2812V79.3848C63.4821 79.5487 63.4911 79.7126 63.511 79.8753C63.5276 80.003 63.5706 80.1259 63.6372 80.236H62.7698C62.7176 80.1286 62.6806 80.0145 62.6598 79.897C62.6343 79.7245 62.6235 79.5501 62.6273 79.3758V78.2631C62.6273 77.8796 62.5336 77.6079 62.346 77.448C62.1031 77.2712 61.8052 77.1868 61.5057 77.21H60.9015V80.227H60.0449V73.1452H61.7581C62.3496 73.1452 62.7824 73.2816 63.0566 73.5545ZM62.3532 76.2776C62.5336 76.1351 62.6237 75.8827 62.6237 75.5184V74.8349C62.641 74.5773 62.5669 74.322 62.4146 74.1136C62.3257 74.0255 62.2186 73.958 62.1008 73.9159C61.983 73.8739 61.8574 73.8582 61.7329 73.8701H60.8979V76.4922H61.5345C61.8243 76.5124 62.1126 76.4349 62.3532 76.2722V76.2776ZM76.6774 76.999H74.7983V79.5237H77.1066V80.245H73.9417V73.1452H77.1066V73.8665H74.7983V76.2866H76.6774V76.999ZM90.365 73.5545C90.6712 73.9162 90.8268 74.3816 90.7997 74.8547V75.0459H89.9863V74.8133C89.9863 74.1388 89.693 73.8016 89.1063 73.8016C88.5196 73.8016 88.2268 74.1358 88.228 74.8043C88.2194 75.1157 88.3245 75.4196 88.5238 75.6591C88.7892 75.9512 89.0882 76.2109 89.4147 76.4327C89.7285 76.6762 89.9773 76.8817 90.1559 77.0513C90.3454 77.2318 90.5016 77.4442 90.6175 77.6788C90.7792 78.0274 90.8417 78.4138 90.7982 78.7956C90.7546 79.1774 90.6066 79.5397 90.3705 79.8429C90.0765 80.1567 89.6491 80.3136 89.0738 80.3136C88.4986 80.3136 88.0712 80.1567 87.7826 79.8429C87.4759 79.4815 87.3203 79.0158 87.348 78.5426V78.1369H88.1505V78.5823C88.1332 78.8508 88.2132 79.1165 88.3759 79.3307C88.56 79.5002 88.8011 79.5942 89.0513 79.5942C89.3015 79.5942 89.5426 79.5002 89.7266 79.3307C89.8903 79.117 89.9704 78.8509 89.9521 78.5823C89.9604 78.2763 89.8572 77.9776 89.6617 77.7419C89.3968 77.4498 89.0998 77.1885 88.7763 76.9629C88.4769 76.7345 88.2335 76.5337 88.0459 76.3606C87.8485 76.1773 87.686 75.9598 87.5662 75.7186C87.4345 75.4493 87.3683 75.1527 87.3732 74.8529C87.3732 74.2921 87.5175 73.8575 87.8025 73.5473C88.0874 73.2371 88.513 73.082 89.0774 73.082C89.6419 73.082 90.0747 73.2317 90.365 73.5545ZM102.249 73.8719H100.832V73.1506H104.518V73.8719H103.1V80.227H102.244L102.249 73.8719ZM114.842 80.227H114.052L115.519 73.1452H116.761L118.238 80.227H117.381L117.084 78.8005H115.14L114.842 80.227ZM116.961 78.1243L116.094 74.036L115.248 78.1243H116.961ZM130.193 79.5814C130.317 79.5925 130.442 79.5752 130.558 79.5309C130.675 79.4865 130.78 79.4162 130.865 79.3253C131.026 79.106 131.104 78.8372 131.085 78.5661V73.156H131.886V78.53C131.914 79.0065 131.762 79.4761 131.459 79.8447C131.172 80.1621 130.737 80.3208 130.162 80.3208C129.587 80.3208 129.161 80.1603 128.876 79.8411C128.573 79.4735 128.42 79.0054 128.447 78.53V73.156H129.293V78.5661C129.293 79.243 129.593 79.5814 130.194 79.5814H130.193ZM145.321 73.5545C145.595 73.825 145.732 74.2302 145.732 74.77V75.3471C145.748 75.6794 145.668 76.0093 145.501 76.2974C145.334 76.5514 145.076 76.7325 144.78 76.8042C145.082 76.8735 145.345 77.0562 145.516 77.3146C145.682 77.6088 145.762 77.9437 145.747 78.2812V79.3848C145.744 79.5488 145.754 79.7127 145.776 79.8753C145.791 80.0032 145.834 80.1262 145.902 80.236H145.033C144.982 80.128 144.945 80.0141 144.923 79.897C144.897 79.7245 144.886 79.5501 144.89 79.3758V78.2631C144.89 77.8796 144.797 77.6079 144.611 77.448C144.367 77.272 144.07 77.1877 143.77 77.21H143.164V80.227H142.308V73.1452H144.012C144.612 73.1452 145.045 73.2804 145.321 73.5545ZM144.618 76.2776C144.798 76.1351 144.886 75.8827 144.886 75.5184V74.8349C144.904 74.5773 144.83 74.322 144.677 74.1136C144.588 74.0255 144.481 73.958 144.364 73.9159C144.246 73.8739 144.12 73.8582 143.996 73.8701H143.161V76.4922H143.799C144.089 76.5118 144.377 76.4344 144.618 76.2722V76.2776ZM156.776 80.227H155.986L157.458 73.1433H158.7L160.172 80.227H159.315L159.018 78.8005H157.074L156.776 80.227ZM158.897 78.1225L158.029 74.0342L157.176 78.1243L158.897 78.1225ZM170.402 80.227V73.1452H171.484L173.264 78.2667V73.1452H174.022V80.227H173.133L171.165 74.4995V80.227H170.402ZM185.601 73.8611H184.184V73.1397H187.875V73.8611H186.458V80.227H185.601V73.8611Z" fill="url(#paint1_linear_71_393)"/>
<path d="M136.128 58.4447C149.574 58.4447 160.475 47.544 160.475 34.0974C160.475 20.6507 149.574 9.75 136.128 9.75C122.681 9.75 111.78 20.6507 111.78 34.0974C111.78 47.544 122.681 58.4447 136.128 58.4447Z" fill="url(#paint2_linear_71_393)"/>
<path d="M133.607 4.42188L135.399 20.5476L134.449 20.6252L133.607 4.42188ZM138.683 65.0657L137.769 48.8678L136.818 48.9454L138.683 65.0657ZM136.88 20.5494L137.83 20.6306L138.808 4.4363L136.88 20.5494ZM133.489 65.0621L135.343 48.9436L134.393 48.8624L133.489 65.0621ZM139.309 20.8795L140.232 21.1193L143.985 5.32537L139.309 20.8795ZM128.303 64.1785L132.907 48.6045L131.985 48.3665L128.303 64.1785ZM141.61 21.6062L142.479 21.9958L148.852 7.04218L141.61 21.6062ZM123.43 62.4779L130.608 47.885L129.738 47.4955L123.43 62.4779ZM143.855 22.7387L144.643 23.2707L153.57 9.64805L143.855 22.7387ZM119.084 60.0307L128.732 46.8985L127.946 46.3666L119.084 60.0307ZM145.785 24.1977L146.47 24.8541L157.583 12.9031L145.785 24.1977ZM114.879 56.6043L126.624 45.2593L125.939 44.6047L114.879 56.6043ZM147.458 25.9704L148.021 26.7314L161.032 16.8219L147.458 25.9704ZM111.239 52.8677L124.765 43.6705L124.206 42.8987L111.239 52.8677ZM148.782 27.9649L149.208 28.8089L163.712 21.1842L148.782 27.9649ZM108.549 48.5126L123.446 41.6597L123.021 40.8158L108.549 48.5126ZM149.929 30.2985L150.172 31.2002L165.945 26.6539L149.929 30.2985ZM106.338 43.0357L122.336 39.3316L122.092 38.4209L106.338 43.0357ZM150.425 32.9963L150.51 33.9341L166.832 32.0784L150.425 32.9963ZM105.438 37.4453L121.831 36.4462L121.748 35.5084L105.438 37.4453ZM150.513 35.4237L150.436 36.3614L166.846 37.2631L150.513 35.4237ZM105.42 32.2588L121.753 34.0279L121.832 33.0901L105.42 32.2588ZM150.198 37.7951L149.963 38.6986L165.986 42.2945L150.198 37.7951ZM106.269 27.2273L122.074 31.6654L122.31 30.7529L106.269 27.2273ZM149.307 40.3379L148.881 41.1837L163.849 47.885L149.307 40.3379ZM108.424 21.8154L123.005 29.2976L123.421 28.45L108.424 21.8154ZM148.135 42.6155L147.579 43.382L161.191 52.4692L148.135 42.6155ZM111.075 17.0455L124.175 26.8486L124.73 26.0822L111.075 17.0455ZM146.42 44.702L145.742 45.3639L157.588 56.6043L146.42 44.702ZM114.489 13.0907L125.71 24.9425L126.39 24.2806L114.489 13.0907ZM144.798 46.0924L144.016 46.6335L153.795 59.67L144.798 46.0924ZM118.457 9.81937L127.513 23.3555L128.294 22.8145L118.457 9.81937ZM142.634 47.436L141.769 47.8309L149.062 62.3751L142.634 47.436ZM123.19 7.13776L129.683 22.039L130.548 21.6441L123.19 7.13776ZM140.395 48.325L139.475 48.5721L144.207 64.1081L140.395 48.325ZM128.043 5.38848L131.93 21.15L132.851 20.9029L128.043 5.38848Z" fill="url(#paint3_linear_71_393)"/>
<path d="M136.169 0L136.669 18.6072H135.587L136.169 0ZM136.169 69.8194L136.669 51.2122H135.587L136.169 69.8194ZM138.333 18.7479L139.399 18.9282L142.028 0.503141L138.333 18.7479ZM130.306 69.3307L133.913 51.0716L132.847 50.8912L130.306 69.3307ZM141.049 19.3592L142.068 19.7199L147.799 2.00896L141.049 19.3592ZM124.535 67.8375L131.208 50.4602L130.189 50.0995L124.535 67.8375ZM143.579 20.4088L144.524 20.9336L153.133 4.43089L143.579 20.4088ZM119.015 65.4408L128.503 49.4197L127.558 48.8949L119.015 65.4408ZM146.008 21.902L146.847 22.5837L158.208 7.83927L146.008 21.902ZM114.13 61.9874L126.263 47.8706L125.426 47.1889L114.13 61.9874ZM148.05 23.7432L148.76 24.5565L162.435 11.9329L148.05 23.7432ZM109.892 57.9063L124.223 46.0293L123.511 45.216L109.892 57.9063ZM149.772 25.9343L150.335 26.8558L165.957 16.7389L149.772 25.9343ZM106.357 53.1058L122.501 43.84L121.939 42.9167L106.357 53.1058ZM151.081 28.3382L151.481 29.3409L168.57 21.9795L151.081 28.3382ZM103.551 47.6938L121.017 41.254L120.617 40.2513L103.551 47.6938ZM152.127 31.5158L152.307 32.5798L170.543 28.854L152.127 31.5158ZM101.795 40.9943L120.206 38.2496L120.025 37.1856L101.795 40.9943ZM152.47 34.2443V35.3263L171.063 34.7131L152.47 34.2443ZM101.254 34.9548L119.863 35.3407V34.2587L101.254 34.9548ZM152.333 37.0269L152.152 38.0927L170.588 40.6553L152.333 37.0269ZM101.714 29.193L119.987 32.7403L120.168 31.6745L101.714 29.193ZM151.741 39.6995L151.38 40.722L169.138 46.3251L151.741 39.6995ZM103.149 23.5178L120.568 30.0677L120.929 29.0469L103.149 23.5178ZM150.482 42.5596L149.931 43.4884L166.193 52.5485L150.482 42.5596ZM106.13 17.1321L121.883 27.0506L122.435 26.1219L106.13 17.1321ZM148.962 45.0303L148.262 45.8526L162.767 57.506L148.962 45.0303ZM109.54 12.3333L123.405 24.7549L124.103 23.9308L109.54 12.3333ZM147.051 47.0554L146.221 47.7497L158.534 61.7079L147.051 47.0554ZM113.768 8.12961L125.309 22.7369L126.139 22.0444L113.768 8.12961ZM144.865 48.7055L143.933 49.2465L153.739 65.0675L144.865 48.7055ZM118.554 4.76091L127.5 21.0778L128.434 20.5368L118.554 4.76091ZM142.297 50.0256L141.283 50.3971L148.136 67.7095L142.297 50.0256ZM124.153 2.14241L130.079 19.7866L131.093 19.4151L124.153 2.14241ZM139.503 50.8335L138.441 51.0301L142.317 69.2387L139.503 50.8335ZM129.798 0.584293L132.692 18.9787L133.754 18.7821L129.798 0.584293Z" fill="url(#paint4_linear_71_393)"/>
<path d="M136.128 52.0411C145.838 52.0411 153.709 44.1698 153.709 34.46C153.709 24.7502 145.838 16.8789 136.128 16.8789C126.418 16.8789 118.547 24.7502 118.547 34.46C118.547 44.1698 126.418 52.0411 136.128 52.0411Z" fill="url(#paint5_linear_71_393)"/>
<path d="M136.127 20.9863C138.792 20.9863 141.397 21.7765 143.613 23.2571C145.829 24.7376 147.555 26.8419 148.575 29.3039C149.595 31.7658 149.861 34.4749 149.341 37.0884C148.821 39.702 147.538 42.1027 145.654 43.9868C143.769 45.871 141.368 47.154 138.755 47.6737C136.141 48.1933 133.432 47.9263 130.97 46.9063C128.508 45.8862 126.404 44.1591 124.924 41.9432C123.444 39.7274 122.654 37.1223 122.654 34.4575C122.654 32.6883 123.003 30.9364 123.68 29.3019C124.357 27.6674 125.35 26.1823 126.601 24.9313C127.852 23.6804 129.337 22.6881 130.972 22.0112C132.606 21.3344 134.358 20.9861 136.127 20.9863ZM136.127 20.4453C133.356 20.4457 130.646 21.2679 128.342 22.8081C126.038 24.3483 124.242 26.5372 123.181 29.0981C122.121 31.6589 121.844 34.4767 122.385 37.1951C122.926 39.9135 124.261 42.4104 126.221 44.37C128.181 46.3297 130.679 47.664 133.397 48.2044C136.116 48.7448 138.933 48.4669 141.494 47.4059C144.054 46.3449 146.243 44.5484 147.782 42.2436C149.322 39.9388 150.144 37.2292 150.143 34.4575C150.139 30.7424 148.66 27.1808 146.033 24.554C143.406 21.9272 139.844 20.4496 136.129 20.4453H136.127Z" fill="black"/>
<path d="M115.997 46.3604H156.247L136.128 10.3398L115.997 46.3604Z" fill="black"/>
<path d="M136.127 11.9283L154.974 45.6712H117.269L136.127 11.9283ZM136.127 11.5676L135.97 11.8489L117.113 45.5829L116.963 45.8516H155.281L155.131 45.5829L136.284 11.8399L136.127 11.5586V11.5676Z" fill="url(#paint6_linear_71_393)"/>
<path d="M149.029 35.8053C146.822 38.8855 141.877 41.0351 136.124 41.0351C130.402 41.0351 125.484 38.909 123.255 35.854C123.228 35.9063 123.286 35.8035 123.255 35.854C125.585 38.6763 130.469 40.7718 136.124 40.7718C141.819 40.7718 146.708 38.6547 149.029 35.8053C149.051 35.8667 149.004 35.7476 149.029 35.8053Z" fill="url(#paint7_linear_71_393)"/>
<path d="M149.44 36.5875C147.045 39.5288 142.001 41.7127 136.124 41.7127C130.29 41.7127 125.248 39.5486 122.844 36.6362C122.815 36.6903 122.875 36.5839 122.844 36.6362C125.138 39.7903 130.22 41.9832 136.124 41.9832C142.059 41.9832 147.163 39.7668 149.44 36.5875C149.464 36.647 149.422 36.528 149.44 36.5875Z" fill="url(#paint8_linear_71_393)"/>
<path d="M149.837 37.2843C147.372 40.3139 142.176 42.5627 136.131 42.5627C130.122 42.5627 124.93 40.3356 122.454 37.333C122.426 37.3889 122.485 37.2789 122.454 37.333C124.817 40.579 130.05 42.8387 136.131 42.8387C142.243 42.8387 147.492 40.5556 149.837 37.2807C149.81 37.2248 149.86 37.3474 149.837 37.2843Z" fill="url(#paint9_linear_71_393)"/>
<path d="M122.454 37.333C124.93 40.3356 130.122 42.5627 136.131 42.5627C142.176 42.5627 147.372 40.3139 149.837 37.2843C149.86 37.3474 149.81 37.2248 149.837 37.2807C147.492 40.5556 142.243 42.8387 136.131 42.8387C130.05 42.8387 124.817 40.579 122.454 37.333ZM122.454 37.333C122.426 37.3889 122.485 37.2789 122.454 37.333Z" stroke="black" stroke-width="0.25" stroke-miterlimit="10"/>
<path d="M150.241 37.9792C147.702 41.0972 142.355 43.4127 136.122 43.4127C129.936 43.4127 124.591 41.1188 122.043 38.0315C122.014 38.0892 122.076 37.9756 122.043 38.0315C124.476 41.3749 129.863 43.7013 136.122 43.7013C142.416 43.7013 147.826 41.3569 150.241 37.9792C150.264 38.0423 150.214 37.916 150.241 37.9792Z" fill="url(#paint10_linear_71_393)"/>
<path d="M150.241 37.9792C147.702 41.0972 142.355 43.4127 136.122 43.4127C129.936 43.4127 124.591 41.1188 122.043 38.0315M150.241 37.9792C147.826 41.3569 142.416 43.7013 136.122 43.7013C129.863 43.7013 124.476 41.3749 122.043 38.0315M150.241 37.9792C150.214 37.916 150.264 38.0423 150.241 37.9792ZM122.043 38.0315C122.014 38.0892 122.076 37.9756 122.043 38.0315Z" stroke="black" stroke-width="0.5" stroke-miterlimit="10"/>
<path d="M150.685 38.596C148.068 41.8096 142.555 44.1973 136.132 44.1973C129.755 44.1973 124.246 41.8348 121.618 38.6501C121.587 38.7096 121.65 38.5942 121.618 38.6501C124.125 42.0963 129.679 44.4948 136.132 44.4948C142.624 44.4948 148.196 42.0711 150.685 38.596C150.701 38.6627 150.647 38.5329 150.685 38.596Z" fill="url(#paint11_linear_71_393)"/>
<path d="M150.685 38.596C148.068 41.8096 142.555 44.1973 136.132 44.1973C129.755 44.1973 124.246 41.8348 121.618 38.6501M150.685 38.596C148.196 42.0711 142.624 44.4948 136.132 44.4948C129.679 44.4948 124.125 42.0963 121.618 38.6501M150.685 38.596C150.647 38.5329 150.701 38.6627 150.685 38.596ZM121.618 38.6501C121.587 38.7096 121.65 38.5942 121.618 38.6501Z" stroke="black" stroke-width="0.75" stroke-miterlimit="10"/>
<path d="M151.141 39.1794C148.436 42.4958 142.749 44.9592 136.122 44.9592C129.542 44.9592 123.859 42.5211 121.143 39.2353C121.113 39.2966 121.178 39.1758 121.143 39.2353C123.731 42.7916 129.462 45.2658 136.122 45.2658C142.816 45.2658 148.565 42.7663 151.141 39.1794C151.166 39.2461 151.112 39.1127 151.141 39.1794Z" fill="url(#paint12_linear_71_393)"/>
<path d="M151.141 39.1794C148.436 42.4958 142.749 44.9592 136.122 44.9592C129.542 44.9592 123.859 42.5211 121.143 39.2353M151.141 39.1794C148.565 42.7663 142.816 45.2658 136.122 45.2658C129.462 45.2658 123.731 42.7916 121.143 39.2353M151.141 39.1794C151.112 39.1127 151.166 39.2461 151.141 39.1794ZM121.143 39.2353C121.113 39.2966 121.178 39.1758 121.143 39.2353Z" stroke="black" stroke-miterlimit="10"/>
<path d="M133.598 38.69C133.325 38.489 133.015 38.3448 132.685 38.2662C132.134 37.7259 131.697 37.0802 131.401 36.3677C131.104 35.6551 130.954 34.8902 130.959 34.1185C130.95 33.2035 131.161 32.2997 131.575 31.4835C131.988 30.6674 132.593 29.9629 133.336 29.4297C133.446 29.4449 133.557 29.4527 133.668 29.4531C133.695 29.4531 133.722 29.4531 133.747 29.4531C132.976 29.9454 132.339 30.6211 131.893 31.4197C131.447 32.2183 131.206 33.115 131.191 34.0295C131.176 34.9441 131.389 35.8482 131.808 36.6608C132.228 37.4734 132.843 38.1694 133.598 38.6864V38.69Z" fill="url(#paint13_linear_71_393)" stroke="black" stroke-width="0.25" stroke-miterlimit="10"/>
<path d="M138.584 29.125C138.443 29.1565 138.298 29.1746 138.153 29.1791C139.969 29.987 141.244 31.8932 141.244 34.1203C141.251 34.9454 141.071 35.7613 140.717 36.5069C140.364 37.2524 139.846 37.9082 139.203 38.425C139.362 38.3719 139.525 38.3357 139.692 38.3168C140.26 37.7761 140.711 37.1249 141.018 36.4032C141.325 35.6815 141.481 34.9046 141.477 34.1203C141.489 33.1045 141.226 32.1044 140.717 31.2252C140.208 30.3461 139.471 29.6206 138.584 29.125Z" fill="url(#paint14_linear_71_393)" stroke="black" stroke-width="0.25" stroke-miterlimit="10"/>
<path d="M132.84 29.4727C132.737 29.4877 132.632 29.4955 132.528 29.4961C132.492 29.4961 132.458 29.4961 132.423 29.4961C131.793 30.0902 131.291 30.8079 130.95 31.6043C130.608 32.4007 130.435 33.2589 130.44 34.1254C130.434 35.5271 130.89 36.8917 131.738 38.008C131.854 38.0644 131.965 38.1301 132.07 38.2046H132.109C132.158 38.2046 132.205 38.2046 132.252 38.2046C131.246 37.0829 130.693 35.6269 130.701 34.12C130.693 33.2356 130.881 32.3605 131.251 31.5572C131.621 30.7538 132.163 30.042 132.84 29.4727Z" fill="url(#paint15_linear_71_393)" stroke="black" stroke-width="0.75" stroke-miterlimit="10"/>
<path d="M139.801 29.2966C139.671 29.2348 139.546 29.1624 139.428 29.0802C139.282 29.0763 139.137 29.0612 138.993 29.0352C139.846 29.5794 140.545 30.332 141.026 31.2218C141.507 32.1116 141.753 33.1093 141.742 34.1207C141.75 35.6237 141.2 37.0762 140.198 38.1963C140.375 38.0775 140.566 37.9795 140.766 37.9042C141.71 36.6084 142.135 35.0058 141.956 33.4125C141.777 31.8191 141.008 30.3506 139.799 29.2966H139.801Z" fill="url(#paint16_linear_71_393)" stroke="black" stroke-width="0.75" stroke-miterlimit="10"/>
<path d="M132.061 29.4525C131.956 29.433 131.852 29.4071 131.749 29.375C130.549 30.6645 129.885 32.3633 129.894 34.1251C129.89 35.4084 130.24 36.6679 130.904 37.7661C131.031 37.7788 131.157 37.8017 131.28 37.8346C130.552 36.7349 130.166 35.444 130.171 34.1251C130.158 32.3788 130.838 30.6984 132.061 29.4525Z" fill="url(#paint17_linear_71_393)" stroke="black" stroke-miterlimit="10"/>
<path d="M140.405 29.4844C141.451 30.5813 142.096 31.999 142.236 33.5082C142.376 35.0173 142.002 36.5294 141.175 37.7997C141.294 37.7747 141.415 37.7597 141.536 37.7546C142.301 36.485 142.645 35.0063 142.519 33.5295C142.393 32.0528 141.805 30.6534 140.836 29.5313C140.692 29.5276 140.547 29.5119 140.405 29.4844Z" fill="url(#paint18_linear_71_393)" stroke="black" stroke-miterlimit="10"/>
<path d="M136.257 30.1517C138.297 30.1517 139.949 31.9135 139.949 34.0848C139.949 36.2561 138.297 38.0162 136.257 38.0162C134.218 38.0162 132.566 36.2561 132.566 34.0848C132.566 31.9135 134.219 30.1517 136.257 30.1517ZM136.257 29.9713C134.127 29.9713 132.396 31.8162 132.396 34.0848C132.396 36.3535 134.127 38.1983 136.257 38.1983C138.387 38.1983 140.12 36.3517 140.12 34.0848C140.12 31.818 138.387 29.9713 136.257 29.9713ZM136.257 29.5764C138.602 29.5764 140.513 31.607 140.513 34.1101C140.513 36.6131 138.602 38.6437 136.257 38.6437C133.913 38.6437 132.001 36.6131 132.001 34.1101C132.001 31.607 133.913 29.5764 136.257 29.5764ZM136.257 29.3672C133.803 29.3672 131.805 31.4952 131.805 34.1101C131.805 36.725 133.803 38.8529 136.257 38.8529C138.712 38.8529 140.71 36.725 140.71 34.1101C140.71 31.4952 138.713 29.3744 136.257 29.3744V29.3672Z" fill="url(#paint19_linear_71_393)"/>
<path d="M145.947 30.0454C143.882 28.0274 140.234 26.6875 136.075 26.6875C132.07 26.6875 128.537 27.93 126.438 29.8218C126.415 29.8885 126.391 29.9534 126.364 30.0183C128.454 28.215 132.023 27.0139 136.075 27.0139C140.297 27.0139 143.99 28.3123 146.037 30.26C146.005 30.1842 145.974 30.1157 145.947 30.0454Z" fill="url(#paint20_linear_71_393)"/>
<path d="M145.406 28.9414C143.455 27.037 140.01 25.7656 136.077 25.7656C132.29 25.7656 128.959 26.9396 126.976 28.7268C126.954 28.7881 126.932 28.8512 126.905 28.9071C128.889 27.1975 132.25 26.0704 136.077 26.0704C140.066 26.0704 143.554 27.2967 145.489 29.1361C145.455 29.073 145.433 29.0117 145.406 28.9414Z" fill="url(#paint21_linear_71_393)"/>
<path d="M144.553 27.5683C142.786 25.9994 139.662 24.957 136.102 24.957C132.676 24.957 129.65 25.9236 127.852 27.3952C127.833 27.4474 127.811 27.4985 127.787 27.5485C129.578 26.14 132.633 25.2041 136.102 25.2041C139.709 25.2041 142.878 26.214 144.631 27.7288C144.595 27.6783 144.568 27.6242 144.553 27.5683Z" fill="url(#paint22_linear_71_393)"/>
<path d="M143.984 26.2909C142.335 24.9762 139.423 24.1016 136.101 24.1016C132.902 24.1016 130.081 24.9113 128.404 26.1466C128.386 26.1899 128.366 26.2332 128.345 26.2746C130.015 25.0934 132.864 24.3144 136.099 24.3144C139.472 24.3144 142.411 25.1619 144.056 26.4261C144.03 26.3828 144.012 26.3377 143.984 26.2909Z" fill="url(#paint23_linear_71_393)" stroke="black" stroke-width="0.25" stroke-miterlimit="10"/>
<path d="M143.381 25.1065C141.859 24.0552 139.172 23.3555 136.108 23.3555C133.158 23.3555 130.555 24.0047 129.008 24.9911C128.993 25.0248 128.975 25.0591 128.954 25.0939C130.494 24.149 133.123 23.5268 136.108 23.5268C139.219 23.5268 141.938 24.2031 143.448 25.2147C143.423 25.18 143.401 25.1439 143.381 25.1065Z" fill="url(#paint24_linear_71_393)" stroke="black" stroke-width="0.25" stroke-miterlimit="10"/>
<path d="M142.67 24.0037C141.3 23.0552 138.883 22.4258 136.117 22.4258C133.459 22.4258 131.114 23.0101 129.719 23.8991C129.704 23.9292 129.688 23.9599 129.67 23.9911C131.059 23.1399 133.426 22.5791 136.117 22.5791C138.921 22.5791 141.372 23.1886 142.732 24.1011C142.71 24.0687 142.69 24.0362 142.67 24.0037Z" fill="url(#paint25_linear_71_393)" stroke="black" stroke-width="0.25" stroke-miterlimit="10"/>
<path d="M142.063 22.958C140.82 22.2366 138.627 21.7461 136.124 21.7461C133.715 21.7461 131.592 22.1951 130.328 22.8786C130.315 22.9029 130.299 22.9263 130.283 22.9489C131.546 22.2943 133.688 21.8669 136.124 21.8669C138.665 21.8669 140.887 22.3358 142.119 23.0373L142.063 22.958Z" fill="url(#paint26_linear_71_393)" stroke="black" stroke-width="0.25" stroke-miterlimit="10"/>
<path d="M141.487 21.9793C140.366 21.3499 138.387 20.9297 136.128 20.9297C133.964 20.9297 132.038 21.3192 130.898 21.9107C130.885 21.932 130.871 21.9525 130.856 21.972C131.993 21.4058 133.922 21.0325 136.128 21.0325C138.422 21.0325 140.425 21.4382 141.538 22.0442C141.523 22.0171 141.505 21.9955 141.487 21.9793Z" fill="url(#paint27_linear_71_393)" stroke="black" stroke-width="0.25" stroke-miterlimit="10"/>
<path d="M140.826 20.8737C139.846 20.3562 138.12 20.0117 136.137 20.0117C134.236 20.0117 132.561 20.3309 131.563 20.816C131.553 20.8337 131.541 20.8506 131.527 20.8665C132.521 20.4012 134.214 20.0965 136.137 20.0965C138.142 20.0965 139.893 20.4283 140.865 20.926L140.826 20.8737Z" fill="url(#paint28_linear_71_393)" stroke="black" stroke-width="0.25" stroke-miterlimit="10"/>
<path d="M136.243 29.0324C140.187 29.0324 143.891 32.7077 145.08 34.053C144.144 35.3009 140.481 38.7959 136.243 38.7959C132.157 38.7959 128.559 35.3244 127.538 34.0241C128.745 32.6572 132.326 29.0324 136.243 29.0324ZM136.243 28.1073C130.804 28.1091 126.339 34.0602 126.339 34.0602C126.422 34.4533 130.806 39.6885 136.245 39.6885C141.684 39.6885 146.138 34.8429 146.214 34.0458C146.214 34.0458 141.682 28.1055 136.245 28.1055L136.243 28.1073Z" fill="url(#paint29_linear_71_393)"/>
<path d="M146.421 33.882C146.232 33.635 141.718 27.8516 136.165 27.8516C134.739 27.8516 133.257 28.2375 131.762 28.9967L131.432 29.1644L131.612 29.4872L131.837 29.8912L132.249 30.6125L132.555 30.4556C133.818 29.8136 135.029 29.489 136.162 29.489C139.924 29.489 143.457 32.9713 144.519 34.1219C143.585 35.1668 142.503 36.0691 141.307 36.7999L141.009 36.9802L141.19 37.2796C141.352 37.5555 141.509 37.8332 141.664 38.1146L141.844 38.4374L142.165 38.248C144.668 36.7711 146.427 34.7855 146.493 34.1201L146.508 33.9794L146.421 33.882Z" fill="url(#paint30_linear_71_393)"/>
<path d="M145.727 34.0972L145.509 33.8574C144.596 32.9337 143.619 32.0767 142.584 31.293C142.56 31.3182 142.605 31.2767 142.56 31.3182C143.544 32.0931 144.428 32.9865 145.193 33.9782L145.373 34.1748L145.193 34.3876C144.924 34.7392 144.236 35.713 142.38 37.071C142.392 37.0815 142.402 37.0952 142.407 37.1107C144.21 35.8952 145.525 34.5517 145.804 34.1838L145.727 34.0972Z" fill="black"/>
<path d="M126.82 33.9634L127.089 33.6622C128.245 32.5374 129.463 31.4778 130.737 30.4883C130.766 30.5225 130.712 30.4702 130.766 30.5225C129.543 31.5166 128.412 32.6181 127.385 33.8137L127.158 34.0626L127.376 34.3313C127.702 34.7749 128.602 35.8641 130.874 37.5773C130.859 37.5915 130.848 37.6096 130.842 37.6296C128.631 36.095 127.055 34.5387 126.716 34.0752L126.82 33.9634Z" fill="black"/>
<path d="M136.2 36.3612C137.414 36.3612 138.399 35.3132 138.399 34.0205C138.399 32.7277 137.414 31.6797 136.2 31.6797C134.986 31.6797 134.002 32.7277 134.002 34.0205C134.002 35.3132 134.986 36.3612 136.2 36.3612Z" fill="url(#paint31_linear_71_393)"/>
<path d="M135.978 35.9028L135.296 32.8947V35.9082H134.897V32.1211H135.536L136.212 35.1435L136.863 32.1247H137.503V35.9118H137.069V32.8677L136.418 35.9028H135.978Z" fill="black"/>
<defs>
<linearGradient id="paint0_linear_71_393" x1="124" y1="13.7539" x2="124" y2="54.6761" gradientUnits="userSpaceOnUse">
<stop stop-color="#B5985C"/>
<stop offset="0.15" stop-color="#D1BD87"/>
<stop offset="0.29" stop-color="#E8DDAA"/>
<stop offset="0.41" stop-color="#F6F0C0"/>
<stop offset="0.49" stop-color="#FBF7C8"/>
<stop offset="0.57" stop-color="#F7F2C2"/>
<stop offset="0.68" stop-color="#EDE3B2"/>
<stop offset="0.8" stop-color="#DBCB96"/>
<stop offset="0.93" stop-color="#C2AA70"/>
<stop offset="1" stop-color="#B4965A"/>
</linearGradient>
<linearGradient id="paint1_linear_71_393" x1="123.958" y1="80.31" x2="123.958" y2="73.0748" gradientUnits="userSpaceOnUse">
<stop stop-color="#B5985C"/>
<stop offset="0.01" stop-color="#B89C60"/>
<stop offset="0.06" stop-color="#CCB880"/>
<stop offset="0.12" stop-color="#DDCF9A"/>
<stop offset="0.18" stop-color="#EBE1AF"/>
<stop offset="0.26" stop-color="#F4EDBD"/>
<stop offset="0.35" stop-color="#F9F5C5"/>
<stop offset="0.49" stop-color="#FBF7C8"/>
<stop offset="0.64" stop-color="#F9F5C5"/>
<stop offset="0.73" stop-color="#F4EDBD"/>
<stop offset="0.8" stop-color="#EAE0AE"/>
<stop offset="0.87" stop-color="#DDCE9A"/>
<stop offset="0.94" stop-color="#CCB77F"/>
<stop offset="0.99" stop-color="#B79A5F"/>
<stop offset="1" stop-color="#B4965A"/>
</linearGradient>
<linearGradient id="paint2_linear_71_393" x1="111.78" y1="34.0974" x2="160.475" y2="34.0974" gradientUnits="userSpaceOnUse">
<stop offset="0.25" stop-color="#F0E091"/>
<stop offset="0.49" stop-color="#A0793E"/>
<stop offset="0.91" stop-color="#F0E091"/>
</linearGradient>
<linearGradient id="paint3_linear_71_393" x1="105.416" y1="34.7438" x2="166.843" y2="34.7438" gradientUnits="userSpaceOnUse">
<stop stop-color="#CBA257"/>
<stop offset="0.31" stop-color="#F2DE90"/>
<stop offset="0.49" stop-color="#9F783E"/>
<stop offset="0.67" stop-color="#E5C177"/>
<stop offset="0.71" stop-color="#E7C57B"/>
<stop offset="0.87" stop-color="#F1D68C"/>
</linearGradient>
<linearGradient id="paint4_linear_71_393" x1="105.928" y1="52.361" x2="166.376" y2="17.4603" gradientUnits="userSpaceOnUse">
<stop stop-color="#CBA257"/>
<stop offset="0.31" stop-color="#F2DE90"/>
<stop offset="0.54" stop-color="#9F783E"/>
<stop offset="0.67" stop-color="#E5C177"/>
<stop offset="0.87" stop-color="#F1D68C"/>
</linearGradient>
<linearGradient id="paint5_linear_71_393" x1="118.545" y1="34.46" x2="153.709" y2="34.46" gradientUnits="userSpaceOnUse">
<stop offset="0.06" stop-color="#AF8849"/>
<stop offset="0.07" stop-color="#B18B4C"/>
<stop offset="0.19" stop-color="#D3B971"/>
<stop offset="0.29" stop-color="#E8D588"/>
<stop offset="0.34" stop-color="#F0E091"/>
<stop offset="0.52" stop-color="#A0793E"/>
<stop offset="0.84" stop-color="#F0E091"/>
</linearGradient>
<linearGradient id="paint6_linear_71_393" x1="116.963" y1="28.7051" x2="155.281" y2="28.7051" gradientUnits="userSpaceOnUse">
<stop stop-color="#CBA257"/>
<stop offset="0.31" stop-color="#F2DE90"/>
<stop offset="0.49" stop-color="#9F783E"/>
<stop offset="0.67" stop-color="#E5C177"/>
<stop offset="0.71" stop-color="#E7C57B"/>
<stop offset="0.87" stop-color="#F1D68C"/>
</linearGradient>
<linearGradient id="paint7_linear_71_393" x1="123.248" y1="38.4112" x2="149.035" y2="38.4112" gradientUnits="userSpaceOnUse">
<stop stop-color="#CBA257"/>
<stop offset="0.31" stop-color="#F2DE90"/>
<stop offset="0.49" stop-color="#9F783E"/>
<stop offset="0.67" stop-color="#E5C177"/>
<stop offset="0.71" stop-color="#E7C57B"/>
<stop offset="0.87" stop-color="#F1D68C"/>
</linearGradient>
<linearGradient id="paint8_linear_71_393" x1="122.835" y1="39.2763" x2="149.447" y2="39.2763" gradientUnits="userSpaceOnUse">
<stop stop-color="#CBA257"/>
<stop offset="0.31" stop-color="#F2DE90"/>
<stop offset="0.49" stop-color="#9F783E"/>
<stop offset="0.67" stop-color="#E5C177"/>
<stop offset="0.71" stop-color="#E7C57B"/>
<stop offset="0.87" stop-color="#F1D68C"/>
</linearGradient>
<linearGradient id="paint9_linear_71_393" x1="122.438" y1="40.0561" x2="149.844" y2="40.0561" gradientUnits="userSpaceOnUse">
<stop stop-color="#CBA257"/>
<stop offset="0.31" stop-color="#F2DE90"/>
<stop offset="0.49" stop-color="#9F783E"/>
<stop offset="0.67" stop-color="#E5C177"/>
<stop offset="0.71" stop-color="#E7C57B"/>
<stop offset="0.87" stop-color="#F1D68C"/>
</linearGradient>
<linearGradient id="paint10_linear_71_393" x1="122.034" y1="40.8303" x2="150.248" y2="40.8303" gradientUnits="userSpaceOnUse">
<stop stop-color="#CBA257"/>
<stop offset="0.31" stop-color="#F2DE90"/>
<stop offset="0.49" stop-color="#9F783E"/>
<stop offset="0.67" stop-color="#E5C177"/>
<stop offset="0.71" stop-color="#E7C57B"/>
<stop offset="0.87" stop-color="#F1D68C"/>
</linearGradient>
<linearGradient id="paint11_linear_71_393" x1="121.6" y1="41.5355" x2="150.683" y2="41.5355" gradientUnits="userSpaceOnUse">
<stop stop-color="#CBA257"/>
<stop offset="0.31" stop-color="#F2DE90"/>
<stop offset="0.49" stop-color="#9F783E"/>
<stop offset="0.67" stop-color="#E5C177"/>
<stop offset="0.71" stop-color="#E7C57B"/>
<stop offset="0.87" stop-color="#F1D68C"/>
</linearGradient>
<linearGradient id="paint12_linear_71_393" x1="121.134" y1="42.2127" x2="151.148" y2="42.2127" gradientUnits="userSpaceOnUse">
<stop stop-color="#CBA257"/>
<stop offset="0.31" stop-color="#F2DE90"/>
<stop offset="0.49" stop-color="#9F783E"/>
<stop offset="0.67" stop-color="#E5C177"/>
<stop offset="0.71" stop-color="#E7C57B"/>
<stop offset="0.87" stop-color="#F1D68C"/>
</linearGradient>
<linearGradient id="paint13_linear_71_393" x1="130.959" y1="34.0644" x2="133.747" y2="34.0644" gradientUnits="userSpaceOnUse">
<stop stop-color="#CBA257"/>
<stop offset="0.31" stop-color="#F2DE90"/>
<stop offset="0.49" stop-color="#9F783E"/>
<stop offset="0.67" stop-color="#E5C177"/>
<stop offset="0.71" stop-color="#E7C57B"/>
<stop offset="0.87" stop-color="#F1D68C"/>
</linearGradient>
<linearGradient id="paint14_linear_71_393" x1="138.153" y1="33.7759" x2="141.477" y2="33.7759" gradientUnits="userSpaceOnUse">
<stop stop-color="#CBA257"/>
<stop offset="0.31" stop-color="#F2DE90"/>
<stop offset="0.49" stop-color="#9F783E"/>
<stop offset="0.67" stop-color="#E5C177"/>
<stop offset="0.71" stop-color="#E7C57B"/>
<stop offset="0.87" stop-color="#F1D68C"/>
</linearGradient>
<linearGradient id="paint15_linear_71_393" x1="130.441" y1="33.8386" x2="132.84" y2="33.8386" gradientUnits="userSpaceOnUse">
<stop stop-color="#CBA257"/>
<stop offset="0.31" stop-color="#F2DE90"/>
<stop offset="0.49" stop-color="#9F783E"/>
<stop offset="0.67" stop-color="#E5C177"/>
<stop offset="0.71" stop-color="#E7C57B"/>
<stop offset="0.87" stop-color="#F1D68C"/>
</linearGradient>
<linearGradient id="paint16_linear_71_393" x1="138.993" y1="33.6157" x2="141.998" y2="33.6157" gradientUnits="userSpaceOnUse">
<stop stop-color="#CBA257"/>
<stop offset="0.31" stop-color="#F2DE90"/>
<stop offset="0.49" stop-color="#9F783E"/>
<stop offset="0.67" stop-color="#E5C177"/>
<stop offset="0.71" stop-color="#E7C57B"/>
<stop offset="0.87" stop-color="#F1D68C"/>
</linearGradient>
<linearGradient id="paint17_linear_71_393" x1="129.886" y1="33.6021" x2="132.061" y2="33.6021" gradientUnits="userSpaceOnUse">
<stop stop-color="#CBA257"/>
<stop offset="0.31" stop-color="#F2DE90"/>
<stop offset="0.49" stop-color="#9F783E"/>
<stop offset="0.67" stop-color="#E5C177"/>
<stop offset="0.71" stop-color="#E7C57B"/>
<stop offset="0.87" stop-color="#F1D68C"/>
</linearGradient>
<linearGradient id="paint18_linear_71_393" x1="140.407" y1="33.6412" x2="142.546" y2="33.6412" gradientUnits="userSpaceOnUse">
<stop stop-color="#CBA257"/>
<stop offset="0.31" stop-color="#F2DE90"/>
<stop offset="0.49" stop-color="#9F783E"/>
<stop offset="0.67" stop-color="#E5C177"/>
<stop offset="0.71" stop-color="#E7C57B"/>
<stop offset="0.87" stop-color="#F1D68C"/>
</linearGradient>
<linearGradient id="paint19_linear_71_393" x1="131.805" y1="34.1101" x2="140.71" y2="34.1101" gradientUnits="userSpaceOnUse">
<stop stop-color="#CBA257"/>
<stop offset="0.31" stop-color="#F2DE90"/>
<stop offset="0.49" stop-color="#9F783E"/>
<stop offset="0.67" stop-color="#E5C177"/>
<stop offset="0.71" stop-color="#E7C57B"/>
<stop offset="0.87" stop-color="#F1D68C"/>
</linearGradient>
<linearGradient id="paint20_linear_71_393" x1="124.406" y1="28.4692" x2="147.743" y2="28.4692" gradientUnits="userSpaceOnUse">
<stop stop-color="#CBA257"/>
<stop offset="0.31" stop-color="#F2DE90"/>
<stop offset="0.49" stop-color="#9F783E"/>
<stop offset="0.67" stop-color="#E5C177"/>
<stop offset="0.71" stop-color="#E7C57B"/>
<stop offset="0.87" stop-color="#F1D68C"/>
</linearGradient>
<linearGradient id="paint21_linear_71_393" x1="125.06" y1="27.4536" x2="147.103" y2="27.4536" gradientUnits="userSpaceOnUse">
<stop stop-color="#CBA257"/>
<stop offset="0.31" stop-color="#F2DE90"/>
<stop offset="0.49" stop-color="#9F783E"/>
<stop offset="0.67" stop-color="#E5C177"/>
<stop offset="0.71" stop-color="#E7C57B"/>
<stop offset="0.87" stop-color="#F1D68C"/>
</linearGradient>
<linearGradient id="paint22_linear_71_393" x1="126.103" y1="26.3456" x2="146.082" y2="26.3456" gradientUnits="userSpaceOnUse">
<stop stop-color="#CBA257"/>
<stop offset="0.31" stop-color="#F2DE90"/>
<stop offset="0.49" stop-color="#9F783E"/>
<stop offset="0.67" stop-color="#E5C177"/>
<stop offset="0.71" stop-color="#E7C57B"/>
<stop offset="0.87" stop-color="#F1D68C"/>
</linearGradient>
<linearGradient id="paint23_linear_71_393" x1="126.781" y1="25.2647" x2="145.419" y2="25.2647" gradientUnits="userSpaceOnUse">
<stop stop-color="#CBA257"/>
<stop offset="0.31" stop-color="#F2DE90"/>
<stop offset="0.49" stop-color="#9F783E"/>
<stop offset="0.67" stop-color="#E5C177"/>
<stop offset="0.71" stop-color="#E7C57B"/>
<stop offset="0.87" stop-color="#F1D68C"/>
</linearGradient>
<linearGradient id="paint24_linear_71_393" x1="127.511" y1="24.286" x2="144.703" y2="24.286" gradientUnits="userSpaceOnUse">
<stop stop-color="#CBA257"/>
<stop offset="0.31" stop-color="#F2DE90"/>
<stop offset="0.49" stop-color="#9F783E"/>
<stop offset="0.67" stop-color="#E5C177"/>
<stop offset="0.71" stop-color="#E7C57B"/>
<stop offset="0.87" stop-color="#F1D68C"/>
</linearGradient>
<linearGradient id="paint25_linear_71_393" x1="128.37" y1="23.2625" x2="143.864" y2="23.2625" gradientUnits="userSpaceOnUse">
<stop stop-color="#CBA257"/>
<stop offset="0.31" stop-color="#F2DE90"/>
<stop offset="0.49" stop-color="#9F783E"/>
<stop offset="0.67" stop-color="#E5C177"/>
<stop offset="0.71" stop-color="#E7C57B"/>
<stop offset="0.87" stop-color="#F1D68C"/>
</linearGradient>
<linearGradient id="paint26_linear_71_393" x1="129.106" y1="22.3899" x2="143.143" y2="22.3899" gradientUnits="userSpaceOnUse">
<stop stop-color="#CBA257"/>
<stop offset="0.31" stop-color="#F2DE90"/>
<stop offset="0.49" stop-color="#9F783E"/>
<stop offset="0.67" stop-color="#E5C177"/>
<stop offset="0.71" stop-color="#E7C57B"/>
<stop offset="0.87" stop-color="#F1D68C"/>
</linearGradient>
<linearGradient id="paint27_linear_71_393" x1="129.798" y1="21.4815" x2="142.467" y2="21.4815" gradientUnits="userSpaceOnUse">
<stop stop-color="#CBA257"/>
<stop offset="0.31" stop-color="#F2DE90"/>
<stop offset="0.49" stop-color="#9F783E"/>
<stop offset="0.67" stop-color="#E5C177"/>
<stop offset="0.71" stop-color="#E7C57B"/>
<stop offset="0.87" stop-color="#F1D68C"/>
</linearGradient>
<linearGradient id="paint28_linear_71_393" x1="130.602" y1="20.4698" x2="141.679" y2="20.4698" gradientUnits="userSpaceOnUse">
<stop stop-color="#CBA257"/>
<stop offset="0.31" stop-color="#F2DE90"/>
<stop offset="0.49" stop-color="#9F783E"/>
<stop offset="0.67" stop-color="#E5C177"/>
<stop offset="0.71" stop-color="#E7C57B"/>
<stop offset="0.87" stop-color="#F1D68C"/>
</linearGradient>
<linearGradient id="paint29_linear_71_393" x1="127.324" y1="31.0269" x2="145.303" y2="36.8681" gradientUnits="userSpaceOnUse">
<stop stop-color="#CBA257"/>
<stop offset="0.31" stop-color="#F2DE90"/>
<stop offset="0.49" stop-color="#9F783E"/>
<stop offset="0.67" stop-color="#E5C177"/>
<stop offset="0.71" stop-color="#E7C57B"/>
<stop offset="0.87" stop-color="#F1D68C"/>
</linearGradient>
<linearGradient id="paint30_linear_71_393" x1="131.432" y1="33.1427" x2="146.508" y2="33.1427" gradientUnits="userSpaceOnUse">
<stop stop-color="#AB8541"/>
<stop offset="0.04" stop-color="#BC9A53"/>
<stop offset="0.12" stop-color="#D3B86E"/>
<stop offset="0.19" stop-color="#E4CD81"/>
<stop offset="0.26" stop-color="#EFDA8C"/>
<stop offset="0.33" stop-color="#F2DE90"/>
<stop offset="0.49" stop-color="#9F783E"/>
<stop offset="0.67" stop-color="#E5C177"/>
<stop offset="0.71" stop-color="#E7C57B"/>
<stop offset="0.87" stop-color="#FCF1A6"/>
</linearGradient>
<linearGradient id="paint31_linear_71_393" x1="134.361" y1="35.3081" x2="138.04" y2="32.7311" gradientUnits="userSpaceOnUse">
<stop offset="0.31" stop-color="#F2DE90"/>
<stop offset="0.7" stop-color="#9F783E"/>
<stop offset="0.91" stop-color="#E5C177"/>
<stop offset="1" stop-color="#F1D68C"/>
</linearGradient>
</defs>
</svg>
